# xmcd CD database file
#
# Track frame offsets:
#	150
#	50177
#	60071
#	106581
#	123523
#	158968
#	196058
#
# Disc length: 2722 seconds
#
# Revision: 0
# Processed by: cddbd v1.5.2PL0 Copyright (c) Steve Scherf et al.
# Submitted via: CDex 1.70beta2
#
DISCID=520aa007
DTITLE=Emler/Tchamitchian/Echampard - Sad and Beautiful
DYEAR=2013
DGENRE=Jazz
TTITLE0=A Journey Through Hope
TTITLE1=Last Chance
TTITLE2=Elegances
TTITLE3=Second Chance
TTITLE4=Tee Time
TTITLE5=By the Way
TTITLE6=Try Home
EXTD=YEAR: 2013
EXTT0=
EXTT1=
EXTT2=
EXTT3=
EXTT4=
EXTT5=
EXTT6=
PLAYORDER=
